<svg xmlns="http://www.w3.org/2000/svg" viewBox="0 0 32 32">
  <defs><linearGradient id="g" x1="0" x2="1" y1="0" y2="1"><stop stop-color="#818cf8"/><stop offset=".55" stop-color="#c084fc"/><stop offset="1" stop-color="#f472b6"/></linearGradient></defs>
  <rect width="32" height="32" rx="9" fill="#0f172a"/>
  <path fill="url(#g)" d="m16 5-2.1 6.4a2.1 2.1 0 0 1-1.35 1.35L6 15l6.45 2.25a2.1 2.1 0 0 1 1.35 1.35L16 25l2.1-6.4a2.1 2.1 0 0 1 1.35-1.35L26 15l-6.55-2.25a2.1 2.1 0 0 1-1.35-1.35L16 5Zm-8 .5v4h4v-4H8Zm12 17v4h4v-4h-4Z"/>
</svg>
